<mxfile host="Electron" modified="2024-04-01T15:46:35.924Z" agent="Mozilla/5.0 (Windows NT 10.0; Win64; x64) AppleWebKit/537.36 (KHTML, like Gecko) draw.io/24.1.0 Chrome/120.0.6099.109 Electron/28.1.0 Safari/537.36" etag="kjHFm_FjcMdny6tkjA2r" version="24.1.0" type="device">
  <diagram id="C5RBs43oDa-KdzZeNtuy" name="Page-1">
    <mxGraphModel dx="892" dy="774" grid="1" gridSize="10" guides="1" tooltips="1" connect="1" arrows="1" fold="1" page="1" pageScale="1" pageWidth="827" pageHeight="1169" math="1" shadow="0">
      <root>
        <mxCell id="WIyWlLk6GJQsqaUBKTNV-0" />
        <mxCell id="WIyWlLk6GJQsqaUBKTNV-1" parent="WIyWlLk6GJQsqaUBKTNV-0" />
        <mxCell id="WIyWlLk6GJQsqaUBKTNV-3" value="General mole balance" style="rounded=1;whiteSpace=wrap;html=1;fontSize=12;glass=0;strokeWidth=1;shadow=0;fontFamily=IBM Plex Sans;fillColor=#388ecc;fontColor=#ffffff;strokeColor=none;" parent="WIyWlLk6GJQsqaUBKTNV-1" vertex="1">
          <mxGeometry x="166" y="80" width="180" height="40" as="geometry" />
        </mxCell>
        <mxCell id="iGngKzLIpx9GkMjgScN4-27" value="" style="edgeStyle=orthogonalEdgeStyle;rounded=0;orthogonalLoop=1;jettySize=auto;html=1;labelBackgroundColor=none;endArrow=blockThin;fontFamily=IBM Plex Sans;endFill=1;endSize=8;strokeWidth=2;shadow=0;fillColor=#d80073;strokeColor=#388ecc;" parent="WIyWlLk6GJQsqaUBKTNV-1" source="iGngKzLIpx9GkMjgScN4-0" target="WIyWlLk6GJQsqaUBKTNV-3" edge="1">
          <mxGeometry relative="1" as="geometry" />
        </mxCell>
        <mxCell id="iGngKzLIpx9GkMjgScN4-0" value="START" style="ellipse;whiteSpace=wrap;html=1;aspect=fixed;fontFamily=IBM Plex Sans;fillColor=#65489d;fontColor=#ffffff;strokeColor=none;" parent="WIyWlLk6GJQsqaUBKTNV-1" vertex="1">
          <mxGeometry x="40" y="70" width="60" height="60" as="geometry" />
        </mxCell>
        <mxCell id="iGngKzLIpx9GkMjgScN4-4" value="Evaluate design equations" style="rounded=1;whiteSpace=wrap;html=1;fontSize=12;glass=0;strokeWidth=1;shadow=0;fontFamily=IBM Plex Sans;fillColor=#9f1d54;fontColor=#ffffff;strokeColor=none;" parent="WIyWlLk6GJQsqaUBKTNV-1" vertex="1">
          <mxGeometry x="196" y="200" width="120" height="40" as="geometry" />
        </mxCell>
        <mxCell id="iGngKzLIpx9GkMjgScN4-10" value="Apply mole balance to derive design equation for reactor" style="rounded=1;whiteSpace=wrap;html=1;fontSize=12;glass=0;strokeWidth=1;shadow=0;fontFamily=IBM Plex Sans;fillColor=#388ecc;fontColor=#ffffff;strokeColor=none;align=center;verticalAlign=middle;" parent="WIyWlLk6GJQsqaUBKTNV-1" vertex="1">
          <mxGeometry x="395" y="80" width="285" height="40" as="geometry" />
        </mxCell>
        <mxCell id="WIyWlLk6GJQsqaUBKTNV-2" value="" style="rounded=0;html=1;jettySize=auto;orthogonalLoop=1;fontSize=11;endArrow=blockThin;endFill=1;endSize=8;strokeWidth=2;shadow=0;labelBackgroundColor=none;edgeStyle=orthogonalEdgeStyle;fontFamily=IBM Plex Sans;exitX=1;exitY=0.5;exitDx=0;exitDy=0;entryX=0;entryY=0.5;entryDx=0;entryDy=0;fillColor=#d80073;strokeColor=#388ecc;align=center;verticalAlign=middle;fontColor=default;" parent="WIyWlLk6GJQsqaUBKTNV-1" source="WIyWlLk6GJQsqaUBKTNV-3" target="iGngKzLIpx9GkMjgScN4-10" edge="1">
          <mxGeometry relative="1" as="geometry">
            <mxPoint x="410" y="100" as="sourcePoint" />
            <mxPoint x="265" y="170" as="targetPoint" />
          </mxGeometry>
        </mxCell>
        <mxCell id="iGngKzLIpx9GkMjgScN4-13" value="rate = g(c)" style="rounded=1;whiteSpace=wrap;html=1;fontSize=12;glass=0;strokeWidth=1;shadow=0;fontFamily=IBM Plex Sans;fillColor=#105e5d;fontColor=#ffffff;strokeColor=none;" parent="WIyWlLk6GJQsqaUBKTNV-1" vertex="1">
          <mxGeometry x="560" y="320" width="120" height="40" as="geometry" />
        </mxCell>
        <mxCell id="iGngKzLIpx9GkMjgScN4-14" value="Is rate = f(X)" style="rhombus;whiteSpace=wrap;html=1;shadow=0;fontFamily=IBM Plex Sans;fontSize=12;align=center;strokeWidth=1;spacing=6;spacingTop=-4;fillColor=#388ecc;fontColor=#ffffff;strokeColor=none;rounded=1;glass=0;verticalAlign=middle;arcSize=0;" parent="WIyWlLk6GJQsqaUBKTNV-1" vertex="1">
          <mxGeometry x="580" y="180" width="100" height="80" as="geometry" />
        </mxCell>
        <mxCell id="iGngKzLIpx9GkMjgScN4-2" value="&lt;font color=&quot;#9f1d54&quot;&gt;Yes&lt;/font&gt;" style="edgeStyle=orthogonalEdgeStyle;rounded=0;html=1;jettySize=auto;orthogonalLoop=1;fontSize=11;endArrow=blockThin;endFill=1;endSize=8;strokeWidth=2;shadow=0;labelBackgroundColor=none;fontFamily=IBM Plex Sans;exitX=0;exitY=0.5;exitDx=0;exitDy=0;fillColor=#6a00ff;strokeColor=#9f1d54;" parent="WIyWlLk6GJQsqaUBKTNV-1" source="iGngKzLIpx9GkMjgScN4-14" target="iGngKzLIpx9GkMjgScN4-4" edge="1">
          <mxGeometry y="-20" relative="1" as="geometry">
            <mxPoint as="offset" />
            <mxPoint x="230" y="300" as="sourcePoint" />
          </mxGeometry>
        </mxCell>
        <mxCell id="iGngKzLIpx9GkMjgScN4-26" value="" style="edgeStyle=orthogonalEdgeStyle;rounded=0;orthogonalLoop=1;jettySize=auto;html=1;exitX=0.827;exitY=0.962;exitDx=0;exitDy=0;exitPerimeter=0;labelBackgroundColor=none;endArrow=blockThin;fontFamily=IBM Plex Sans;endFill=1;endSize=8;strokeWidth=2;shadow=0;fillColor=#d80073;strokeColor=#388ecc;align=center;verticalAlign=middle;fontSize=11;fontColor=default;" parent="WIyWlLk6GJQsqaUBKTNV-1" source="iGngKzLIpx9GkMjgScN4-10" target="iGngKzLIpx9GkMjgScN4-14" edge="1">
          <mxGeometry relative="1" as="geometry" />
        </mxCell>
        <mxCell id="iGngKzLIpx9GkMjgScN4-5" value="&lt;font color=&quot;#105e5d&quot;&gt;No&lt;/font&gt;" style="rounded=0;html=1;jettySize=auto;orthogonalLoop=1;fontSize=11;endArrow=blockThin;endFill=1;endSize=8;strokeWidth=2;shadow=0;labelBackgroundColor=none;edgeStyle=orthogonalEdgeStyle;fontFamily=IBM Plex Sans;exitX=0.5;exitY=1;exitDx=0;exitDy=0;entryX=0.587;entryY=-0.06;entryDx=0;entryDy=0;entryPerimeter=0;fillColor=#008a00;strokeColor=#105e5d;align=center;verticalAlign=middle;fontColor=default;" parent="WIyWlLk6GJQsqaUBKTNV-1" source="iGngKzLIpx9GkMjgScN4-14" target="iGngKzLIpx9GkMjgScN4-13" edge="1">
          <mxGeometry x="-0.3333" y="20" relative="1" as="geometry">
            <mxPoint as="offset" />
            <mxPoint x="-125" y="460" as="sourcePoint" />
            <mxPoint x="-125" y="520" as="targetPoint" />
          </mxGeometry>
        </mxCell>
        <mxCell id="iGngKzLIpx9GkMjgScN4-15" value="Stoichiometry" style="rounded=1;whiteSpace=wrap;html=1;fontSize=12;glass=0;strokeWidth=1;shadow=0;fontFamily=IBM Plex Sans;fillColor=#105e5d;fontColor=#ffffff;strokeColor=none;align=center;verticalAlign=middle;" parent="WIyWlLk6GJQsqaUBKTNV-1" vertex="1">
          <mxGeometry x="395" y="320" width="120" height="40" as="geometry" />
        </mxCell>
        <mxCell id="iGngKzLIpx9GkMjgScN4-21" value="" style="edgeStyle=orthogonalEdgeStyle;rounded=0;orthogonalLoop=1;jettySize=auto;html=1;labelBackgroundColor=none;endArrow=blockThin;fontFamily=IBM Plex Sans;endFill=1;endSize=8;strokeWidth=2;shadow=0;strokeColor=#105e5d;fillColor=#008a00;align=center;verticalAlign=middle;fontSize=11;fontColor=default;" parent="WIyWlLk6GJQsqaUBKTNV-1" source="iGngKzLIpx9GkMjgScN4-13" target="iGngKzLIpx9GkMjgScN4-15" edge="1">
          <mxGeometry relative="1" as="geometry" />
        </mxCell>
        <mxCell id="iGngKzLIpx9GkMjgScN4-16" value="combine to obtain design equations" style="rounded=1;whiteSpace=wrap;html=1;fontSize=12;glass=0;strokeWidth=1;shadow=0;fontFamily=IBM Plex Sans;fillColor=#105e5d;fontColor=#ffffff;strokeColor=none;align=center;verticalAlign=middle;" parent="WIyWlLk6GJQsqaUBKTNV-1" vertex="1">
          <mxGeometry x="196" y="320" width="120" height="40" as="geometry" />
        </mxCell>
        <mxCell id="iGngKzLIpx9GkMjgScN4-22" value="" style="edgeStyle=orthogonalEdgeStyle;rounded=0;orthogonalLoop=1;jettySize=auto;html=1;labelBackgroundColor=none;endArrow=blockThin;fontFamily=IBM Plex Sans;endFill=1;endSize=8;strokeWidth=2;shadow=0;strokeColor=#105e5d;fillColor=#008a00;align=center;verticalAlign=middle;fontSize=11;fontColor=default;" parent="WIyWlLk6GJQsqaUBKTNV-1" source="iGngKzLIpx9GkMjgScN4-15" target="iGngKzLIpx9GkMjgScN4-16" edge="1">
          <mxGeometry relative="1" as="geometry" />
        </mxCell>
        <mxCell id="iGngKzLIpx9GkMjgScN4-17" value="Solve (Usually ODEs)" style="rounded=1;whiteSpace=wrap;html=1;fontSize=12;glass=0;strokeWidth=1;shadow=0;fontFamily=IBM Plex Sans;fillColor=#105e5d;fontColor=#ffffff;strokeColor=none;align=center;verticalAlign=middle;" parent="WIyWlLk6GJQsqaUBKTNV-1" vertex="1">
          <mxGeometry x="40" y="320" width="120" height="40" as="geometry" />
        </mxCell>
        <mxCell id="iGngKzLIpx9GkMjgScN4-23" value="" style="edgeStyle=orthogonalEdgeStyle;rounded=0;orthogonalLoop=1;jettySize=auto;html=1;entryX=1;entryY=0.5;entryDx=0;entryDy=0;labelBackgroundColor=none;endArrow=blockThin;fontFamily=IBM Plex Sans;endFill=1;endSize=8;strokeWidth=2;shadow=0;strokeColor=#105e5d;fillColor=#008a00;align=center;verticalAlign=middle;fontSize=11;fontColor=default;" parent="WIyWlLk6GJQsqaUBKTNV-1" source="iGngKzLIpx9GkMjgScN4-16" target="iGngKzLIpx9GkMjgScN4-17" edge="1">
          <mxGeometry relative="1" as="geometry" />
        </mxCell>
        <mxCell id="iGngKzLIpx9GkMjgScN4-18" value="End" style="ellipse;whiteSpace=wrap;html=1;aspect=fixed;fontFamily=IBM Plex Sans;fillColor=#65489d;fontColor=#ffffff;strokeColor=none;align=center;verticalAlign=middle;fontSize=12;" parent="WIyWlLk6GJQsqaUBKTNV-1" vertex="1">
          <mxGeometry x="40" y="190" width="60" height="60" as="geometry" />
        </mxCell>
        <mxCell id="iGngKzLIpx9GkMjgScN4-25" value="" style="edgeStyle=orthogonalEdgeStyle;rounded=0;orthogonalLoop=1;jettySize=auto;html=1;labelBackgroundColor=none;endArrow=blockThin;fontFamily=IBM Plex Sans;endFill=1;endSize=8;strokeWidth=2;shadow=0;fillColor=#6a00ff;strokeColor=#9f1d54;align=center;verticalAlign=middle;fontSize=11;fontColor=default;" parent="WIyWlLk6GJQsqaUBKTNV-1" source="iGngKzLIpx9GkMjgScN4-4" target="iGngKzLIpx9GkMjgScN4-18" edge="1">
          <mxGeometry relative="1" as="geometry" />
        </mxCell>
        <mxCell id="iGngKzLIpx9GkMjgScN4-24" value="" style="edgeStyle=orthogonalEdgeStyle;rounded=0;orthogonalLoop=1;jettySize=auto;html=1;exitX=0.25;exitY=0;exitDx=0;exitDy=0;labelBackgroundColor=none;endArrow=block;fontFamily=IBM Plex Sans;endFill=0;endSize=8;strokeWidth=2;shadow=0;" parent="WIyWlLk6GJQsqaUBKTNV-1" source="iGngKzLIpx9GkMjgScN4-17" target="iGngKzLIpx9GkMjgScN4-18" edge="1">
          <mxGeometry relative="1" as="geometry" />
        </mxCell>
      </root>
    </mxGraphModel>
  </diagram>
</mxfile>
